<?xml version="1.0" encoding="UTF-8"?>
<svg id="Layer_1" data-name="Layer 1" xmlns="http://www.w3.org/2000/svg" viewBox="0 0 72 72">
  <defs>
    <style>
      .cls-1 {
        fill: #ce685a;
      }
    </style>
  </defs>
  <path class="cls-1" d="m20,0C8.97,0,0,8.97,0,20v32c0,11.03,8.97,20,20,20h32c11.03,0,20-8.97,20-20V20c0-11.03-8.97-20-20-20H20Zm0,8h32c6.62,0,12,5.38,12,12v32c0,6.62-5.38,12-12,12H20c-6.62,0-12-5.38-12-12V20c0-6.62,5.38-12,12-12Zm36,4c-2.21,0-4,1.79-4,4s1.79,4,4,4,4-1.79,4-4-1.79-4-4-4Zm-20,4c-11.03,0-20,8.97-20,20s8.97,20,20,20,20-8.97,20-20-8.97-20-20-20Zm0,8c6.62,0,12,5.38,12,12s-5.38,12-12,12-12-5.38-12-12,5.38-12,12-12Z"/>
</svg>