<?xml version="1.0" encoding="UTF-8"?>
<svg id="Layer_1" data-name="Layer 1" xmlns="http://www.w3.org/2000/svg" viewBox="0 0 232 226">
  <defs>
    <style>
      .cls-1 {
        fill: #fff;
      }
    </style>
  </defs>
  <path class="cls-1" d="m64.7,51.34c-.12-4.34-.21-6.01-.31-7.49-.17-2.44-.95-4.73-2.07-6.78-1.13-2.05-2.23-3.63-2.95-4.48-.55-.65-.87-.71-1.23-.16-.36.56-.84,1.42-1.56,2.6-1.58,2.64-4.15,5.92-4.84,9.55-.61,3.25-.83,11-.79,26.38.04,17.41.08,35.02.47,52.29.25,10.93.69,22.05,1.02,33.08.19,6.18.41,7.41,1.26,9.95.54,1.62,2.13,3.03,3.18,4.04,1.05,1,1.59,1.66,1.93,1.94.33.28.47.18,1.02-.34.54-.52,1.47-1.52,2.6-2.98.68-1.03,1.29-1.88,1.6-2.52.32-.64.5-1.35.58-2.13.07-.78.09-1.71.06-2.8-.04-1.09.05-2.26.16-6.71.1-4.24.13-9.81.17-15.05.04-5.23.06-8.7.06-9.49,0-10.22.01-20.44.02-30.65-.06-13.35-.11-26.7-.21-40.04,0-.3-.06-3.86-.17-8.21Z"/>
  <path class="cls-1" d="m225.63,0H6.37C2.85,0,0,2.85,0,6.37v213.26C0,223.15,2.85,226,6.37,226h219.26c3.52,0,6.37-2.85,6.37-6.37V6.37c0-3.52-2.85-6.37-6.37-6.37ZM70.83,202.52c.27,3,.26,5.48.26,7.08s-.11,2.78-.32,3.51c-.22.74-.59,1.13-1.1,1.17-.52.04-1.3.11-2.21.07-.91-.04-2.19-.09-3.7,0-1.52.09-4.08.17-7.67.26-3.6.09-8.54.13-14.82.13s-14.67-.09-25.15-.26v-2.34c.26-6.5.48-12.37.65-17.62.17-5.24.28-5.97.32-18.12.06-18.29.07-36.6.07-54.89,0-15.23.05-30.51-.13-45.71-.07-6.22-.18-13.96-.26-26.03-.08-11.56-.14-23.13-.26-34.7.87-.42,2.21-.73,4.03-.96,1.82-.23,3.77-.34,5.85-.34s4.12.12,6.11.4c1.99.28,3.58.72,4.75,1.38-.23,12.08-.24,24.18-.23,36.23,0,11.6.1,23.24.16,34.85.13,26.23.26,52.49.33,78.7.03,9.44.07,18.88-.06,28.33v.13c.61-.17,1.75-.24,3.44-.19,1.69.04,3.66.11,5.92.19,2.25.09,4.66.2,7.22.33,2.55.13,4.98.24,7.28.32,2.29.09,4.33.15,6.11.2,1.77.04,3.01.02,3.71-.06,0,.95-.04,1.91-.13,2.86-.08.86-.15,1.76-.19,2.67-.04.91,0,1.73.06,2.41Zm6.77-159.62c-.02,2.09,0,4.21-.15,10.43-.48,19.94-.65,39.99-.8,59.97-.12,15.87-.08,31.78-.78,47.64-.15,1.94-.22,2.58-.36,4.25-.16,2.96-.59,5.88-1.22,8.8-.63,2.93-1.48,5.66-2.51,7.98-.88,1.97-2.03,3.61-3.52,4.85-1.49,1.23-3.82,2.23-6.05,2.91-2.04.62-2.72.91-3.22.89-.49-.02-.85-.22-2.28-.52-1.05-.22-3.02-.49-4.46-.73-1.43-.24-2.58-.63-3.63-1.2-1.05-.58-1.95-1.35-2.79-2.34-.84-.99-1.53-2.42-2.18-4.02-.82-2.05-1.65-4.39-2-6.85-.35-2.46-.56-4.96-.65-7.46-.63-17.28-.68-34.78-.82-52.14-.2-23.82-.63-48.16.19-71.69.14-3.9.59-8.05,1.37-12.2.78-4.15,2.2-7.88,3.85-11.22.53-.96,1.12-1.84,1.79-2.64,1.71-1.64,4.32-2.88,7.08-3.54,2.77-.65,2.95-.89,3.68-.72s3.07.62,6.15,1.85c3.07,1.23,5.79,3.24,7.81,5.47,2.18,2.41,3.59,5.28,4.29,8.23.44,1.27.75,2.54.91,3.83.17,1.29.3,2.62.33,3.92.04,2.03-.03,4.16-.04,6.25Zm44.84,173.53c-.54.38-1.44.57-2.47.57-1.22,0-2.36-.23-3.69-.71-1.33-.48-2.64-.72-4.11-.72-2.38-17.62-3.29-35.76-5.76-53-1.96-13.71-4.45-28.13-9.1-41.55-.65-1.89-.97-2.6-1.56-3.84-.4-.76-.75-1.37-1.07-1.88-.32-.51-.57-.76-.74-.79-.09-.02-.19.34-.37,1.76-.18,1.43-.42,3.55-.58,9.04-.16,5.49-.11,14.63.3,25.98.42,11.58.95,23.2,1.46,34.79.27,6.11.49,11.82.65,16.92.16,5.11.29,9.25.4,12.56-.92.58-1.86.96-2.71,1.15-.84.19-1.63.28-2.39.28-1.65,0-3.18-.28-4.81-.85-1.63-.58-3.32-.88-5.28-.87,0-8.24,0-13.6,0-24.68-.02-22.1-.11-44.24-.18-66.3-.04-12.88.49-11.6.71-22.43.28-13.57-.12-27.19-.43-40.76-.34-15.08-.67-30.17-.34-45.26.81-.43,1.64-.8,2.46-1.1.82-.3,1.62-.54,2.41-.69.4-.08,1.04-.17,1.95-.26.9-.09,1.81-.08,2.78.08.96.15,1.87.42,2.69.77.82.36,1.27.77,1.25,1.19.43,3.82.68,7.47.92,10.52.24,3.05.43,6.16.61,9.24.18,3.09.37,6.64.6,10.69.23,4.05.5,9.36.96,15.87.1,1.55.34,4.53.84,8.89.5,4.37,1.14,9.42,2,14.86.86,5.45,1.9,10.93,3.06,15.97,1.16,5.04,2.22,8.73,3.16,11.2.93,2.47,1.75,3.93,2.43,4.92.68.99,1.07,1.3,1.15,1.32.2-.03.19-.34.12-1.91-.08-1.57-.12-3.87-.13-6.97-.03-7.28-.04-17.38-.2-27.4-.16-10.73-.22-21.47-.21-32.2,0-6.38.03-12.66.08-18.49.05-5.83.11-11.64.2-16.62,2.94-1.17,5.04-1.74,7.25-1.74s4.2.52,6.69,1.72c-.49,33.35-1.64,66.68-2.1,100.03.04,1.89.05,2.61.07,5.38.02,2.77.08,8.43.3,17.59.14,6.18.32,12.99.48,19.85.16,6.86.36,14.18.56,21.51.14,5.24.3,10.42.46,15.36.16,4.95.27,9.67.32,13.98.03,2.59.04,3.83.05,6.15-.18.19-.57.48-1.11.86Zm44.62.71c-.54.38-1.44.57-2.47.57-1.22,0-2.36-.23-3.69-.71-1.33-.48-2.64-.72-4.11-.72-2.39-17.62-3.29-35.76-5.76-53-1.96-13.71-4.45-28.13-9.1-41.55-.65-1.89-.97-2.6-1.56-3.84-.4-.76-.75-1.37-1.07-1.88-.32-.51-.57-.76-.74-.79-.09-.02-.19.34-.37,1.76-.18,1.43-.42,3.55-.58,9.04-.16,5.49-.11,14.63.3,25.98.42,11.58.95,23.2,1.46,34.79.27,6.11.49,11.82.65,16.92.16,5.11.29,9.25.4,12.56-.92.58-1.86.96-2.71,1.15-.84.19-1.63.28-2.39.28-1.65,0-3.18-.28-4.81-.85-1.63-.58-3.32-.88-5.28-.87,0-8.24,0-13.6,0-24.68-.02-22.11-.11-44.25-.18-66.32-.04-12.98.48-12.29.71-23.33.28-13.47-.12-26.99-.43-40.47-.34-14.87-.67-29.75-.34-44.63.81-.43,1.64-.8,2.46-1.1.82-.3,1.62-.54,2.41-.69.4-.08,1.04-.17,1.95-.25.9-.09,1.81-.07,2.78.08.96.15,1.87.42,2.69.77.82.36,1.27.77,1.25,1.19.43,3.82.68,7.47.92,10.52.24,3.05.43,6.16.61,9.24.18,3.09.37,6.64.6,10.69.23,4.05.5,9.36.96,15.87.1,1.55.34,4.53.84,8.89.5,4.37,1.14,9.42,2,14.86.86,5.45,1.9,10.93,3.06,15.97,1.16,5.04,2.22,8.73,3.16,11.2.93,2.47,1.75,3.93,2.43,4.92.68.99,1.07,1.3,1.15,1.32.2-.03.19-.34.12-1.91-.08-1.57-.12-3.87-.13-6.97-.03-7.28-.04-17.38-.2-27.4-.16-10.73-.22-21.47-.21-32.2,0-6.38.03-12.66.08-18.49.05-5.83.11-11.64.2-16.62,2.94-1.17,5.04-1.74,7.25-1.74s4.2.52,6.69,1.72c-.49,33.35-1.64,66.68-2.1,100.03.04,1.89.05,2.61.07,5.38.02,2.77.08,8.43.3,17.59.14,6.18.32,12.99.48,19.85.16,6.86.36,14.18.56,21.51.14,5.24.3,10.42.46,15.36.16,4.95.27,9.67.32,13.98.03,2.59.04,3.83.05,6.15-.18.19-.57.48-1.11.86Zm17.95-175.79c-.07,14.47-.58,28.93-1.2,43.38-.62,14.58-1.17,29.19-1.24,43.76-.07,14.57.38,29.18.93,43.76.54,14.37,1.13,28.75,1.43,43.13-.36,1.34-1.11,2.13-2.26,2.38-1.15.25-2.39.29-3.71.13-1.33-.17-2.6-.38-3.81-.63-1.21-.25-2.05-.12-2.5.38.15-15.15-.11-30.27-.63-45.39-.52-15.07-1.08-30.23-1.2-45.27-.12-14.74.34-29.6.83-44.39.48-14.34,1.09-28.67,1.54-43.01,0-.2,0-.3,0-.5.22-.16.66-.13,1.32.13.65.25,1.17.35,1.45.38.74.08,1.74.38,2.8.63,1.06.25,2.6.29,4.62.13h1.62c0,.4,0,.6,0,1Zm-6-6.36c-4.42,0-6-3.58-6-8s2.58-9,7-9,5,4.58,5,9-1.58,8-6,8Zm38.98,174.54c-.04,2.86-.24,1.47-.57,6.5-4.33-.15-8.71.01-13.19.66-4.47.65-8.77.11-12.88-1.17-2.03-16.55-1.84-33.62-2.11-50.07-.27-16.3.15-33.27-.19-49.45-.35-16.58-.43-33.69-.01-50.25.4-15.84.21-32.34.4-48.5,1.75-.25,4.26-.88,6.77-1.24,2.52-.36,4.45-.41,6.4-.59,1.95-.18,3.84-.37,5.66-.54,1.82-.18,3.43-.28,4.83-.28s2.52.1,3.37.29c.85.19,1.27.37,1.27.54.21,6.17.26,4.96.16,9.35-.11,4.39-.16,9.7-.16,13.25v.15c-1.36.77-2.72,1.18-4.1,1.3-1.38.12-2.77.14-4.16.13-1.4,0-2.8-.35-4.19-.59-1.4-.24-2.8-.26-4.19.02-.08,0-.11-.01-.19-.02-.03.09-.04.13-.06.22.03,10.76-.09,21.53-.16,32.28-.06,10.66-.24,21.37.22,32.04.03.12.04.17.06.29,1.27.39,2.56.58,3.88.58s2.63.1,3.94.29v.29c.21,6.57.28,13.14.19,19.7-.08,6.57-.11,3.76-.07,6.99-.65.35-1.42.61-2.32.67-.9.06-1.8.09-2.65.09s-1.63.06-2.3.18c-.67.12-1.12.41-1.36,1.02-.38,11.48.17,23.07.47,34.53.39,14.42.37,17.61.47,21.52.03.1.04.14.07.24,2.86-.25,5.97-.66,8.62.05,2.65.71,4.58,1.25,7.42.84.01.25.02.37.03.62.45,6.54.67,15.23.62,18.08Z"/>
</svg>