<?xml version="1.0" encoding="UTF-8"?>
<svg id="Layer_1" data-name="Layer 1" xmlns="http://www.w3.org/2000/svg" viewBox="0 0 1440 2960">
  <defs>
    <style>
      .cls-1 {
        opacity: .05;
      }

      .cls-2, .cls-3 {
        fill: #161658;
      }

      .cls-4 {
        fill: #080740;
      }

      .cls-3 {
        isolation: isolate;
        opacity: 1;
      }

      .cls-5 {
        opacity: .15;
      }

      .cls-6 {
        opacity: .25;
      }

      .cls-7 {
        opacity: .45;
      }

      .cls-8 {
        opacity: .35;
      }

      .cls-9 {
        opacity: .65;
      }

      .cls-10 {
        opacity: .55;
      }

      .cls-11 {
        opacity: .9;
      }

      .cls-12 {
        opacity: .85;
      }

      .cls-13 {
        opacity: .8;
      }

      .cls-14 {
        opacity: .75;
      }

      .cls-15 {
        opacity: .95;
      }
    </style>
  </defs>
  <rect class="cls-4" x="-2" y="-34" width="1460" height="3001"/>
  <g id="Group_21" data-name="Group 21">
    <circle id="Ellipse_19" data-name="Ellipse 19" class="cls-2" cx="-31.11" cy="2485.46" r="50.72"/>
    <path id="Path_29" data-name="Path 29" class="cls-2" d="m148.21,2593.06c19.81,19.81,19.81,51.92,0,71.73-19.81,19.81-51.92,19.81-71.73,0-19.81-19.81-19.81-51.92,0-71.73,19.81-19.81,51.92-19.81,71.73,0Z"/>
    <path id="Path_28" data-name="Path 28" class="cls-2" d="m291.67,2736.52c19.81,19.81,19.81,51.92,0,71.73-19.81,19.81-51.92,19.81-71.73,0-19.81-19.81-19.81-51.92,0-71.73,19.81-19.81,51.92-19.81,71.73,0Z"/>
    <circle id="Ellipse_22" data-name="Ellipse 22" class="cls-2" cx="399.27" cy="2915.84" r="50.72"/>
  </g>
  <g id="Group_22" data-name="Group 22" class="cls-15">
    <circle id="Ellipse_7-2" data-name="Ellipse 7-2" class="cls-2" cx="-46.51" cy="2198.54" r="50.72"/>
    <path id="Path_30-2" data-name="Path 30-2" class="cls-2" d="m132.81,2306.14c19.81,19.81,19.81,51.92,0,71.73-19.81,19.81-51.92,19.81-71.73,0-19.81-19.81-19.81-51.92,0-71.73,19.81-19.81,51.92-19.81,71.73,0Z"/>
    <circle id="Ellipse_19-2" data-name="Ellipse 19-2" class="cls-2" cx="240.41" cy="2485.46" r="50.72"/>
    <path id="Path_29-2" data-name="Path 29-2" class="cls-2" d="m419.73,2593.06c19.81,19.81,19.81,51.92,0,71.73-19.81,19.81-51.92,19.81-71.73,0-19.81-19.81-19.81-51.92,0-71.73,19.81-19.81,51.92-19.81,71.73,0Z"/>
    <path id="Path_28-2" data-name="Path 28-2" class="cls-2" d="m563.19,2736.52c19.81,19.81,19.81,51.92,0,71.73-19.81,19.81-51.92,19.81-71.73,0-19.81-19.81-19.81-51.92,0-71.73s51.92-19.81,71.73,0Z"/>
    <circle id="Ellipse_22-2" data-name="Ellipse 22-2" class="cls-2" cx="670.79" cy="2915.84" r="50.72"/>
  </g>
  <g id="Group_23" data-name="Group 23">
    <path id="Path_28-3" data-name="Path 28-3" class="cls-2" d="m29.33,2736.52c19.81,19.81,19.81,51.92,0,71.73-19.81,19.81-51.92,19.81-71.73,0-19.81-19.81-19.81-51.92,0-71.73,19.81-19.81,51.92-19.81,71.73,0Z"/>
    <circle id="Ellipse_22-3" data-name="Ellipse 22-3" class="cls-2" cx="136.93" cy="2915.84" r="50.72"/>
  </g>
  <g id="Group_24" data-name="Group 24" class="cls-12">
    <path id="Path_33-4" data-name="Path 33-4" class="cls-2" d="m89.33,1732.3c19.81,19.81,19.81,51.92,0,71.73-19.81,19.81-51.92,19.81-71.73,0s-19.81-51.92,0-71.73c19.81-19.81,51.92-19.81,71.73,0Z"/>
    <path id="Path_32-4" data-name="Path 32-4" class="cls-3" d="m232.79,1875.76c19.81,19.81,19.81,51.92,0,71.73-19.81,19.81-51.92,19.81-71.73,0-19.81-19.81-19.81-51.92,0-71.73s51.92-19.81,71.73,0Z"/>
    <path id="Path_31-4" data-name="Path 31-4" class="cls-2" d="m376.25,2019.22c19.81,19.81,19.81,51.92,0,71.73-19.81,19.81-51.92,19.81-71.73,0-19.81-19.81-19.81-51.92,0-71.73,19.81-19.81,51.92-19.81,71.73,0Z"/>
    <circle id="Ellipse_7-4" data-name="Ellipse 7-4" class="cls-2" cx="483.84" cy="2198.54" r="50.72"/>
    <path id="Path_30-4" data-name="Path 30-4" class="cls-2" d="m663.17,2306.14c19.81,19.81,19.81,51.92,0,71.73-19.81,19.81-51.92,19.81-71.73,0-19.81-19.81-19.81-51.92,0-71.73,19.81-19.81,51.92-19.81,71.73,0Z"/>
    <circle id="Ellipse_19-4" data-name="Ellipse 19-4" class="cls-2" cx="770.76" cy="2485.46" r="50.72"/>
    <path id="Path_29-4" data-name="Path 29-4" class="cls-2" d="m950.09,2593.06c19.81,19.81,19.81,51.92,0,71.73s-51.92,19.81-71.73,0c-19.81-19.81-19.81-51.92,0-71.73,19.81-19.81,51.92-19.81,71.73,0Z"/>
    <path id="Path_28-4" data-name="Path 28-4" class="cls-2" d="m1093.55,2736.52c19.81,19.81,19.81,51.92,0,71.73-19.81,19.81-51.92,19.81-71.73,0s-19.81-51.92,0-71.73c19.81-19.81,51.92-19.81,71.73,0Z"/>
    <circle id="Ellipse_22-4" data-name="Ellipse 22-4" class="cls-2" cx="1201.14" cy="2915.84" r="50.72"/>
  </g>
  <g id="Group_25" data-name="Group 25" class="cls-13">
    <circle id="Ellipse_2-5" data-name="Ellipse 2-5" class="cls-2" cx="38.06" cy="1481.24" r="50.72"/>
    <path id="Path_34-5" data-name="Path 34-5" class="cls-2" d="m217.39,1588.84c19.81,19.81,19.81,51.92,0,71.73-19.81,19.81-51.92,19.81-71.73,0-19.81-19.81-19.81-51.92,0-71.73,19.81-19.81,51.92-19.81,71.73,0Z"/>
    <path id="Path_33-5" data-name="Path 33-5" class="cls-2" d="m360.85,1732.3c19.81,19.81,19.81,51.92,0,71.73-19.81,19.81-51.92,19.81-71.73,0s-19.81-51.92,0-71.73c19.81-19.81,51.92-19.81,71.73,0Z"/>
    <path id="Path_32-5" data-name="Path 32-5" class="cls-3" d="m504.31,1875.76c19.81,19.81,19.81,51.92,0,71.73-19.81,19.81-51.92,19.81-71.73,0-19.81-19.81-19.81-51.92,0-71.73s51.92-19.81,71.73,0Z"/>
    <path id="Path_31-5" data-name="Path 31-5" class="cls-2" d="m647.77,2019.22c19.81,19.81,19.81,51.92,0,71.73-19.81,19.81-51.92,19.81-71.73,0-19.81-19.81-19.81-51.92,0-71.73,19.81-19.81,51.92-19.81,71.73,0Z"/>
    <circle id="Ellipse_7-5" data-name="Ellipse 7-5" class="cls-2" cx="755.36" cy="2198.54" r="50.72"/>
    <path id="Path_30-5" data-name="Path 30-5" class="cls-2" d="m934.69,2306.14c19.81,19.81,19.81,51.92,0,71.73s-51.92,19.81-71.73,0-19.81-51.92,0-71.73c19.81-19.81,51.92-19.81,71.73,0Z"/>
    <circle id="Ellipse_19-5" data-name="Ellipse 19-5" class="cls-2" cx="1042.28" cy="2485.46" r="50.72"/>
    <path id="Path_29-5" data-name="Path 29-5" class="cls-2" d="m1221.61,2593.06c19.81,19.81,19.81,51.92,0,71.73s-51.92,19.81-71.73,0c-19.81-19.81-19.81-51.92,0-71.73s51.92-19.81,71.73,0Z"/>
    <path id="Path_28-5" data-name="Path 28-5" class="cls-2" d="m1365.07,2736.52c19.81,19.81,19.81,51.92,0,71.73-19.81,19.81-51.92,19.81-71.73,0-19.81-19.81-19.81-51.92,0-71.73,19.81-19.81,51.92-19.81,71.73,0Z"/>
    <circle id="Ellipse_22-5" data-name="Ellipse 22-5" class="cls-2" cx="1472.67" cy="2915.84" r="50.72"/>
  </g>
  <g id="Group_26" data-name="Group 26" class="cls-11">
    <path id="Path_31-6" data-name="Path 31-6" class="cls-2" d="m113.91,2019.22c19.81,19.81,19.81,51.92,0,71.73-19.81,19.81-51.92,19.81-71.73,0-19.81-19.81-19.81-51.92,0-71.73,19.81-19.81,51.92-19.81,71.73,0Z"/>
    <circle id="Ellipse_7-6" data-name="Ellipse 7-6" class="cls-2" cx="221.5" cy="2198.54" r="50.72"/>
    <path id="Path_30-6" data-name="Path 30-6" class="cls-2" d="m400.83,2306.14c19.81,19.81,19.81,51.92,0,71.73-19.81,19.81-51.92,19.81-71.73,0-19.81-19.81-19.81-51.92,0-71.73,19.81-19.81,51.92-19.81,71.73,0Z"/>
    <circle id="Ellipse_19-6" data-name="Ellipse 19-6" class="cls-2" cx="508.42" cy="2485.46" r="50.72"/>
    <path id="Path_29-6" data-name="Path 29-6" class="cls-2" d="m687.75,2593.06c19.81,19.81,19.81,51.92,0,71.73s-51.92,19.81-71.73,0c-19.81-19.81-19.81-51.92,0-71.73s51.92-19.81,71.73,0Z"/>
    <path id="Path_28-6" data-name="Path 28-6" class="cls-2" d="m831.21,2736.52c19.81,19.81,19.81,51.92,0,71.73-19.81,19.81-51.92,19.81-71.73,0s-19.81-51.92,0-71.73c19.81-19.81,51.92-19.81,71.73,0Z"/>
    <circle id="Ellipse_22-6" data-name="Ellipse 22-6" class="cls-2" cx="938.8" cy="2915.84" r="50.72"/>
  </g>
  <g id="Group_15" data-name="Group 15" class="cls-14">
    <circle id="Ellipse_1-7" data-name="Ellipse 1-7" class="cls-2" cx="156.94" cy="1337.78" r="50.72"/>
    <circle id="Ellipse_2-7" data-name="Ellipse 2-7" class="cls-2" cx="300.4" cy="1481.24" r="50.72"/>
    <path id="Path_34-7" data-name="Path 34-7" class="cls-2" d="m479.73,1588.84c19.81,19.81,19.81,51.92,0,71.73-19.81,19.81-51.92,19.81-71.73,0-19.81-19.81-19.81-51.92,0-71.73,19.81-19.81,51.92-19.81,71.73,0Z"/>
    <path id="Path_33-7" data-name="Path 33-7" class="cls-2" d="m623.19,1732.3c19.81,19.81,19.81,51.92,0,71.73-19.81,19.81-51.92,19.81-71.73,0-19.81-19.81-19.81-51.92,0-71.73,19.81-19.81,51.92-19.81,71.73,0Z"/>
    <path id="Path_32-7" data-name="Path 32-7" class="cls-3" d="m766.65,1875.76c19.81,19.81,19.81,51.92,0,71.73s-51.92,19.81-71.73,0c-19.81-19.81-19.81-51.92,0-71.73,19.81-19.81,51.92-19.81,71.73,0Z"/>
    <path id="Path_31-7" data-name="Path 31-7" class="cls-2" d="m910.11,2019.22c19.81,19.81,19.81,51.92,0,71.73-19.81,19.81-51.92,19.81-71.73,0-19.81-19.81-19.81-51.92,0-71.73,19.81-19.81,51.92-19.81,71.73,0Z"/>
    <circle id="Ellipse_7-7" data-name="Ellipse 7-7" class="cls-2" cx="1017.71" cy="2198.54" r="50.72"/>
    <path id="Path_30-7" data-name="Path 30-7" class="cls-2" d="m1197.03,2306.14c19.81,19.81,19.81,51.92,0,71.73-19.81,19.81-51.92,19.81-71.73,0-19.81-19.81-19.81-51.92,0-71.73,19.81-19.81,51.92-19.81,71.73,0Z"/>
    <circle id="Ellipse_16-7" data-name="Ellipse 16-7" class="cls-2" cx="13.48" cy="1194.32" r="50.72"/>
    <circle id="Ellipse_19-7" data-name="Ellipse 19-7" class="cls-2" cx="1304.63" cy="2485.46" r="50.72"/>
    <path id="Path_29-7" data-name="Path 29-7" class="cls-2" d="m1483.95,2593.06c19.81,19.81,19.81,51.92,0,71.73s-51.92,19.81-71.73,0c-19.81-19.81-19.81-51.92,0-71.73,19.81-19.81,51.92-19.81,71.73,0Z"/>
  </g>
  <g id="Group_16" data-name="Group 16" class="cls-9">
    <circle id="Ellipse_1-8" data-name="Ellipse 1-8" class="cls-2" cx="428.46" cy="1337.78" r="50.72"/>
    <circle id="Ellipse_2-8" data-name="Ellipse 2-8" class="cls-2" cx="571.92" cy="1481.24" r="50.72"/>
    <path id="Path_34-8" data-name="Path 34-8" class="cls-2" d="m751.25,1588.84c19.81,19.81,19.81,51.92,0,71.73-19.81,19.81-51.92,19.81-71.73,0-19.81-19.81-19.81-51.92,0-71.73,19.81-19.81,51.92-19.81,71.73,0Z"/>
    <path id="Path_33-8" data-name="Path 33-8" class="cls-2" d="m894.71,1732.3c19.81,19.81,19.81,51.92,0,71.73-19.81,19.81-51.92,19.81-71.73,0-19.81-19.81-19.81-51.92,0-71.73,19.81-19.81,51.92-19.81,71.73,0Z"/>
    <path id="Path_32-8" data-name="Path 32-8" class="cls-3" d="m1038.17,1875.76c19.81,19.81,19.81,51.92,0,71.73-19.81,19.81-51.92,19.81-71.73,0-19.81-19.81-19.81-51.92,0-71.73s51.92-19.81,71.73,0Z"/>
    <path id="Path_31-8" data-name="Path 31-8" class="cls-2" d="m1181.63,2019.22c19.81,19.81,19.81,51.92,0,71.73-19.81,19.81-51.92,19.81-71.73,0-19.81-19.81-19.81-51.92,0-71.73,19.81-19.81,51.92-19.81,71.73,0Z"/>
    <circle id="Ellipse_7-8" data-name="Ellipse 7-8" class="cls-2" cx="1289.23" cy="2198.54" r="50.72"/>
    <path id="Path_30-8" data-name="Path 30-8" class="cls-2" d="m1468.55,2306.14c19.81,19.81,19.81,51.92,0,71.73s-51.92,19.81-71.73,0c-19.81-19.81-19.81-51.92,0-71.73,19.81-19.81,51.92-19.81,71.73,0Z"/>
    <path id="Path_36-8" data-name="Path 36-8" class="cls-2" d="m33.95,871.53c19.81,19.81,19.81,51.92,0,71.73-19.81,19.81-51.92,19.81-71.73,0-19.81-19.81-19.81-51.92,0-71.73,19.81-19.81,51.92-19.81,71.73,0Z"/>
    <path id="Path_35-8" data-name="Path 35-8" class="cls-2" d="m177.41,1014.99c19.81,19.81,19.81,51.92,0,71.73-19.81,19.81-51.92,19.81-71.73,0-19.81-19.81-19.81-51.92,0-71.73,19.81-19.81,51.92-19.81,71.73,0Z"/>
    <circle id="Ellipse_16-8" data-name="Ellipse 16-8" class="cls-2" cx="285" cy="1194.32" r="50.72"/>
  </g>
  <g id="Group_18" data-name="Group 18" class="cls-7">
    <circle id="Ellipse_1-9" data-name="Ellipse 1-9" class="cls-2" cx="958.82" cy="1337.78" r="50.72"/>
    <circle id="Ellipse_2-9" data-name="Ellipse 2-9" class="cls-2" cx="1102.28" cy="1481.24" r="50.72"/>
    <path id="Path_34-9" data-name="Path 34-9" class="cls-2" d="m1281.61,1588.84c19.81,19.81,19.81,51.92,0,71.73-19.81,19.81-51.92,19.81-71.73,0-19.81-19.81-19.81-51.92,0-71.73,19.81-19.81,51.92-19.81,71.73,0Z"/>
    <path id="Path_33-9" data-name="Path 33-9" class="cls-2" d="m1425.07,1732.3c19.81,19.81,19.81,51.92,0,71.73-19.81,19.81-51.92,19.81-71.73,0-19.81-19.81-19.81-51.92,0-71.73,19.81-19.81,51.92-19.81,71.73,0Z"/>
    <path id="Path_38-9" data-name="Path 38-9" class="cls-2" d="m-9.54,297.69c19.81,19.81,19.81,51.92,0,71.73-19.81,19.81-51.92,19.81-71.73,0-19.81-19.81-19.81-51.92,0-71.73,19.81-19.81,51.92-19.81,71.73,0Z"/>
    <path id="Path_37-9" data-name="Path 37-9" class="cls-2" d="m133.92,441.15c19.81,19.81,19.81,51.92,0,71.73-19.81,19.81-51.92,19.81-71.73,0s-19.81-51.92,0-71.73c19.81-19.81,51.92-19.81,71.73,0Z"/>
    <circle id="Ellipse_12-9" data-name="Ellipse 12-9" class="cls-2" cx="241.52" cy="620.48" r="50.72"/>
    <circle id="Ellipse_13-9" data-name="Ellipse 13-9" class="cls-2" cx="384.98" cy="763.94" r="50.72"/>
    <path id="Path_36-9" data-name="Path 36-9" class="cls-2" d="m564.3,871.53c19.81,19.81,19.81,51.92,0,71.73-19.81,19.81-51.92,19.81-71.73,0-19.81-19.81-19.81-51.92,0-71.73,19.81-19.81,51.92-19.81,71.73,0Z"/>
    <path id="Path_35-9" data-name="Path 35-9" class="cls-2" d="m707.77,1014.99c19.81,19.81,19.81,51.92,0,71.73-19.81,19.81-51.92,19.81-71.73,0-19.81-19.81-19.81-51.92,0-71.73,19.81-19.81,51.92-19.81,71.73,0Z"/>
    <circle id="Ellipse_16-9" data-name="Ellipse 16-9" class="cls-2" cx="815.36" cy="1194.32" r="50.72"/>
  </g>
  <g id="Group_19" data-name="Group 19" class="cls-8">
    <circle id="Ellipse_1-10" data-name="Ellipse 1-10" class="cls-2" cx="1230.34" cy="1337.78" r="50.72"/>
    <circle id="Ellipse_2-10" data-name="Ellipse 2-10" class="cls-2" cx="1373.8" cy="1481.24" r="50.72"/>
    <path id="Path_39-10" data-name="Path 39-10" class="cls-2" d="m118.52,154.23c19.81,19.81,19.81,51.92,0,71.73-19.81,19.81-51.92,19.81-71.73,0-19.81-19.81-19.81-51.92,0-71.73,19.81-19.81,51.92-19.81,71.73,0Z"/>
    <path id="Path_38-10" data-name="Path 38-10" class="cls-2" d="m261.98,297.69c19.81,19.81,19.81,51.92,0,71.73-19.81,19.81-51.92,19.81-71.73,0-19.81-19.81-19.81-51.92,0-71.73,19.81-19.81,51.92-19.81,71.73,0Z"/>
    <path id="Path_37-10" data-name="Path 37-10" class="cls-2" d="m405.44,441.15c19.81,19.81,19.81,51.92,0,71.73-19.81,19.81-51.92,19.81-71.73,0s-19.81-51.92,0-71.73c19.81-19.81,51.92-19.81,71.73,0Z"/>
    <circle id="Ellipse_12-10" data-name="Ellipse 12-10" class="cls-2" cx="513.04" cy="620.48" r="50.72"/>
    <circle id="Ellipse_13-10" data-name="Ellipse 13-10" class="cls-2" cx="656.5" cy="763.94" r="50.72"/>
    <path id="Path_36-10" data-name="Path 36-10" class="cls-2" d="m835.82,871.53c19.81,19.81,19.81,51.92,0,71.73-19.81,19.81-51.92,19.81-71.73,0-19.81-19.81-19.81-51.92,0-71.73,19.81-19.81,51.92-19.81,71.73,0Z"/>
    <path id="Path_35-10" data-name="Path 35-10" class="cls-2" d="m979.28,1014.99c19.81,19.81,19.81,51.92,0,71.73-19.81,19.81-51.92,19.81-71.73,0-19.81-19.81-19.81-51.92,0-71.73,19.81-19.81,51.92-19.81,71.73,0Z"/>
    <circle id="Ellipse_16-10" data-name="Ellipse 16-10" class="cls-2" cx="1086.88" cy="1194.32" r="50.72"/>
  </g>
  <g id="Group_20" data-name="Group 20" class="cls-10">
    <circle id="Ellipse_1-11" data-name="Ellipse 1-11" class="cls-2" cx="696.48" cy="1337.78" r="50.72"/>
    <circle id="Ellipse_2-11" data-name="Ellipse 2-11" class="cls-2" cx="839.94" cy="1481.24" r="50.72"/>
    <path id="Path_34-11" data-name="Path 34-11" class="cls-2" d="m1019.26,1588.84c19.81,19.81,19.81,51.92,0,71.73-19.81,19.81-51.92,19.81-71.73,0-19.81-19.81-19.81-51.92,0-71.73,19.81-19.81,51.92-19.81,71.73,0Z"/>
    <path id="Path_33-11" data-name="Path 33-11" class="cls-2" d="m1162.72,1732.3c19.81,19.81,19.81,51.92,0,71.73-19.81,19.81-51.92,19.81-71.73,0-19.81-19.81-19.81-51.92,0-71.73,19.81-19.81,51.92-19.81,71.73,0Z"/>
    <path id="Path_32-11" data-name="Path 32-11" class="cls-3" d="m1306.18,1875.76c19.81,19.81,19.81,51.92,0,71.73-19.81,19.81-51.92,19.81-71.73,0s-19.81-51.92,0-71.73c19.81-19.81,51.92-19.81,71.73,0Z"/>
    <path id="Path_31-11" data-name="Path 31-11" class="cls-2" d="m1449.65,2019.22c19.81,19.81,19.81,51.92,0,71.73-19.81,19.81-51.92,19.81-71.73,0-19.81-19.81-19.81-51.92,0-71.73s51.92-19.81,71.73,0Z"/>
    <circle id="Ellipse_12-11" data-name="Ellipse 12-11" class="cls-2" cx="-20.82" cy="620.48" r="50.72"/>
    <circle id="Ellipse_13-11" data-name="Ellipse 13-11" class="cls-2" cx="122.64" cy="763.94" r="50.72"/>
    <path id="Path_36-11" data-name="Path 36-11" class="cls-2" d="m301.96,871.53c19.81,19.81,19.81,51.92,0,71.73-19.81,19.81-51.92,19.81-71.73,0-19.81-19.81-19.81-51.92,0-71.73,19.81-19.81,51.92-19.81,71.73,0Z"/>
    <path id="Path_35-11" data-name="Path 35-11" class="cls-2" d="m445.42,1014.99c19.81,19.81,19.81,51.92,0,71.73-19.81,19.81-51.92,19.81-71.73,0-19.81-19.81-19.81-51.92,0-71.73,19.81-19.81,51.92-19.81,71.73,0Z"/>
    <circle id="Ellipse_16-11" data-name="Ellipse 16-11" class="cls-2" cx="553.02" cy="1194.32" r="50.72"/>
  </g>
  <g id="Group_12" data-name="Group 12" class="cls-6">
    <path id="Path_39-12" data-name="Path 39-12" class="cls-2" d="m380.86,154.23c19.81,19.81,19.81,51.92,0,71.73-19.81,19.81-51.92,19.81-71.73,0-19.81-19.81-19.81-51.92,0-71.73,19.81-19.81,51.92-19.81,71.73,0Z"/>
    <path id="Path_38-12" data-name="Path 38-12" class="cls-2" d="m524.32,297.69c19.81,19.81,19.81,51.92,0,71.73-19.81,19.81-51.92,19.81-71.73,0-19.81-19.81-19.81-51.92,0-71.73,19.81-19.81,51.92-19.81,71.73,0Z"/>
    <path id="Path_37-12" data-name="Path 37-12" class="cls-2" d="m667.78,441.15c19.81,19.81,19.81,51.92,0,71.73-19.81,19.81-51.92,19.81-71.73,0s-19.81-51.92,0-71.73c19.81-19.81,51.92-19.81,71.73,0Z"/>
    <circle id="Ellipse_12-12" data-name="Ellipse 12-12" class="cls-2" cx="775.38" cy="620.48" r="50.72"/>
    <circle id="Ellipse_13-12" data-name="Ellipse 13-12" class="cls-2" cx="918.84" cy="763.94" r="50.72"/>
    <path id="Path_36-12" data-name="Path 36-12" class="cls-2" d="m1098.17,871.53c19.81,19.81,19.81,51.92,0,71.73-19.81,19.81-51.92,19.81-71.73,0-19.81-19.81-19.81-51.92,0-71.73,19.81-19.81,51.92-19.81,71.73,0Z"/>
    <path id="Path_35-12" data-name="Path 35-12" class="cls-2" d="m1241.63,1014.99c19.81,19.81,19.81,51.92,0,71.73-19.81,19.81-51.92,19.81-71.73,0-19.81-19.81-19.81-51.92,0-71.73,19.81-19.81,51.92-19.81,71.73,0Z"/>
    <circle id="Ellipse_16-12" data-name="Ellipse 16-12" class="cls-2" cx="1349.22" cy="1194.32" r="50.72"/>
    <circle id="Ellipse_18-12" data-name="Ellipse 18-12" class="cls-2" cx="201.54" cy="46.64" r="50.72"/>
  </g>
  <g id="Group_13" data-name="Group 13" class="cls-5">
    <path id="Path_39-13" data-name="Path 39-13" class="cls-2" d="m652.38,154.23c19.81,19.81,19.81,51.92,0,71.73-19.81,19.81-51.92,19.81-71.73,0-19.81-19.81-19.81-51.92,0-71.73,19.81-19.81,51.92-19.81,71.73,0Z"/>
    <path id="Path_38-13" data-name="Path 38-13" class="cls-2" d="m795.84,297.69c19.81,19.81,19.81,51.92,0,71.73-19.81,19.81-51.92,19.81-71.73,0-19.81-19.81-19.81-51.92,0-71.73,19.81-19.81,51.92-19.81,71.73,0Z"/>
    <path id="Path_37-13" data-name="Path 37-13" class="cls-2" d="m939.3,441.15c19.81,19.81,19.81,51.92,0,71.73s-51.92,19.81-71.73,0c-19.81-19.81-19.81-51.92,0-71.73,19.81-19.81,51.92-19.81,71.73,0Z"/>
    <circle id="Ellipse_12-13" data-name="Ellipse 12-13" class="cls-2" cx="1046.9" cy="620.48" r="50.72"/>
    <circle id="Ellipse_13-13" data-name="Ellipse 13-13" class="cls-2" cx="1190.36" cy="763.94" r="50.72"/>
    <path id="Path_36-13" data-name="Path 36-13" class="cls-2" d="m1369.68,871.53c19.81,19.81,19.81,51.92,0,71.73-19.81,19.81-51.92,19.81-71.73,0-19.81-19.81-19.81-51.92,0-71.73,19.81-19.81,51.92-19.81,71.73,0Z"/>
    <path id="Path_35-13" data-name="Path 35-13" class="cls-2" d="m1513.14,1014.99c19.81,19.81,19.81,51.92,0,71.73-19.81,19.81-51.92,19.81-71.73,0-19.81-19.81-19.81-51.92,0-71.73,19.81-19.81,51.92-19.81,71.73,0Z"/>
    <circle id="Ellipse_18-13" data-name="Ellipse 18-13" class="cls-2" cx="473.06" cy="46.64" r="50.72"/>
  </g>
  <g id="Group_11" data-name="Group 11" class="cls-1">
    <path id="Path_39-14" data-name="Path 39-14" class="cls-2" d="m920.4,154.23c19.81,19.81,19.81,51.92,0,71.73-19.81,19.81-51.92,19.81-71.73,0-19.81-19.81-19.81-51.92,0-71.73,19.81-19.81,51.92-19.81,71.73,0Z"/>
    <path id="Path_38-14" data-name="Path 38-14" class="cls-2" d="m1063.86,297.69c19.81,19.81,19.81,51.92,0,71.73-19.81,19.81-51.92,19.81-71.73,0-19.81-19.81-19.81-51.92,0-71.73,19.81-19.81,51.92-19.81,71.73,0Z"/>
    <path id="Path_37-14" data-name="Path 37-14" class="cls-2" d="m1207.32,441.15c19.81,19.81,19.81,51.92,0,71.73-19.81,19.81-51.92,19.81-71.73,0s-19.81-51.92,0-71.73c19.81-19.81,51.92-19.81,71.73,0Z"/>
    <circle id="Ellipse_12-14" data-name="Ellipse 12-14" class="cls-2" cx="1314.92" cy="620.48" r="50.72"/>
    <circle id="Ellipse_13-14" data-name="Ellipse 13-14" class="cls-2" cx="1458.38" cy="763.94" r="50.72"/>
    <circle id="Ellipse_18-14" data-name="Ellipse 18-14" class="cls-2" cx="741.07" cy="46.64" r="50.72"/>
  </g>
</svg>