<?xml version="1.0" encoding="UTF-8"?>
<svg id="Layer_1" data-name="Layer 1" xmlns="http://www.w3.org/2000/svg" viewBox="0 0 72.01 58">
  <defs>
    <style>
      .cls-1 {
        fill: #e8a94d;
      }
    </style>
  </defs>
  <path class="cls-1" d="m72.01,6.86c-2.65,1.17-5.49,1.95-8.49,2.32,3.05-1.81,5.4-4.7,6.5-8.12-2.86,1.67-6.02,2.9-9.39,3.55-2.69-2.85-6.52-4.62-10.77-4.62-8.16,0-14.77,6.56-14.77,14.64,0,1.14.13,2.26.39,3.34-12.28-.62-23.16-6.45-30.45-15.31-1.28,2.16-2,4.7-2,7.37,0,5.08,2.6,9.56,6.57,12.19-2.42-.07-4.7-.75-6.7-1.83v.17c0,7.1,5.09,13.02,11.85,14.36-1.23.34-2.54.53-3.88.53-.95,0-1.88-.11-2.78-.27,1.88,5.8,7.33,10.05,13.8,10.17-5.06,3.92-11.42,6.27-18.35,6.27-1.2,0-2.37-.07-3.52-.21,6.54,4.14,14.31,6.57,22.65,6.57,27.17,0,42.03-22.31,42.03-41.67,0-.63-.02-1.27-.05-1.89,2.9-2.05,5.4-4.63,7.37-7.58"/>
</svg>